{"title":"TNA iMPACT Wrestling 2015 06 24 720p HDTV DD 5.1 x264-PPKORE -={","uid":12060206,"size":2638247030,"categoryP":"video","categoryS":"hd___tv_shows","magnet":"?xt=urn:btih:9bb106ad03aff49d2a30e2e1b4d08ea30058016d&amp;dn=TNA+iMPACT+Wrestling+2015+06+24+720p+HDTV+DD+5.1+x264-PPKORE+-%3D%7B&amp;tr=udp%3A%2F%2Ftracker.openbittorrent.com%3A80&amp;tr=udp%3A%2F%2Fopen.demonii.com%3A1337&amp;tr=udp%3A%2F%2Ftracker.coppersurfer.tk%3A6969&amp;tr=udp%3A%2F%2Fexodus.desync.com%3A6969","seeders":1,"leechers":1,"uploader":"CenaCme","files":2,"time":1435238342,"description":"Quick and easy encode from Destination America HD, enjoy.\n\nGeneral\nUnique ID                                : 251395774928297001543991864984465335657 (0xBD2110A9423FCA6DACF1609CF4F06569)\nComplete name                            : TNA.iMPACT.Wrestling.2015.06.24.720p.HDTV.DD5.1.x264-PPKORE.mkv\nFormat                                  : Matroska\nFormat version                          : Version 4 / Version 2\nFile size                                : 2.46 GiB\nDuration                                : 1h 28mn\nOverall bit rate mode                    : Variable\nOverall bit rate                        : 3 983 Kbps\nEncoded date                            : UTC 2015-06-25 10:40:01\nWriting application                      : mkvmerge v7.9.0 ('Birds') 32bit\nWriting library                          : libebml v1.3.1 + libmatroska v1.4.2\nDURATION                                : 01:28:19.552000000\nNUMBER_OF_FRAMES                        : 165611\nNUMBER_OF_BYTES                          : 254371584\n_STATISTICS_WRITING_APP                  : mkvmerge v7.9.0 ('Birds') 32bit\n_STATISTICS_WRITING_DATE_UTC            : 2015-06-25 10:40:01\n_STATISTICS_TAGS                        : BPS DURATION NUMBER_OF_FRAMES NUMBER_OF_BYTES\n\nVideo\nID                                      : 1\nFormat                                  : AVC\nFormat/Info                              : Advanced Video Codec\nFormat profile                          : &lt;a class=&quot;__cf_email__&quot; href=&quot;/cdn-cgi/l/email-protection&quot; data-cfemail=&quot;d69ebfb1be969ae2f8e7&quot;&gt;[email&amp;#160;protected]&lt;/a&gt;&lt;script data-cfhash='f9e31' type=&quot;text/javascript&quot;&gt;\n/* &lt;![CDATA[ */!function(){try{var t=&quot;currentScript&quot;in document?document.currentScript:function(){for(var t=document.getElementsByTagName(&quot;script&quot;),e=t.length;e--;)if(t[e].getAttribute(&quot;data-cfhash&quot;))return t[e]}();if(t&amp;&amp;t.previousSibling){var e,r,n,i,c=t.previousSibling,a=c.getAttribute(&quot;data-cfemail&quot;);if(a){for(e=&quot;&quot;,r=parseInt(a.substr(0,2),16),n=2;a.length-n;n+=2)i=parseInt(a.substr(n,2),16)^r,e+=String.fromCharCode(i);e=document.createTextNode(e),c.parentNode.replaceChild(e,c)}t.parentNode.removeChild(t);}}catch(u){}}()/* ]]&gt; */&lt;/script&gt;\nFormat settings, CABAC                  : Yes\nFormat settings, ReFrames                : 4 frames\nCodec ID                                : V_MPEG4/ISO/AVC\nDuration                                : 1h 28mn\nBit rate mode                            : Variable\nBit rate                                : 3 519 Kbps\nMaximum bit rate                        : 62.5 Mbps\nWidth                                    : 1 280 pixels\nHeight                                  : 720 pixels\nDisplay aspect ratio                    : 16:9\nFrame rate mode                          : Constant\nFrame rate                              : 29.970 fps\nColor space                              : YUV\nChroma subsampling                      : 4:2:0\nBit depth                                : 8 bits\nScan type                                : Progressive\nBits/(Pixel*Frame)                      : 0.127\nStream size                              : 2.17 GiB (88%)\nWriting library                          : x264 core 146 r2538 121396c\nEncoding settings                        : cabac=1 / ref=2 / deblock=1:0:0 / analyse=0x3:0x113 / me=hex / subme=6 / psy=1 / psy_rd=1.00:0.00 / mixed_ref=1 / me_range=16 / chroma_me=1 / trellis=1 / 8x8dct=1 / cqm=0 / deadzone=21,11 / fast_pskip=1 / chroma_qp_offset=-2 / threads=12 / lookahead_threads=2 / sliced_threads=0 / nr=0 / decimate=1 / interlaced=0 / bluray_compat=0 / constrained_intra=0 / bframes=3 / b_pyramid=2 / b_adapt=1 / b_bias=0 / direct=1 / weightb=1 / open_gop=0 / weightp=1 / keyint=300 / keyint_min=30 / scenecut=40 / intra_refresh=0 / rc_lookahead=30 / rc=crf / mbtree=1 / crf=22.0 / qcomp=0.60 / qpmin=0 / qpmax=69 / qpstep=4 / vbv_maxrate=62500 / vbv_bufsize=62500 / crf_max=0.0 / nal_hrd=vbr / filler=0 / ip_ratio=1.40 / aq=1:1.00\nDefault                                  : Yes\nForced                                  : No\n\nAudio\nID                                      : 2\nFormat                                  : AC-3\nFormat/Info                              : Audio Coding 3\nMode extension                          : CM (complete main)\nFormat settings, Endianness              : Big\nCodec ID                                : A_AC3\nDuration                                : 1h 28mn\nBit rate mode                            : Constant\nBit rate                                : 384 Kbps\nChannel(s)                              : 6 channels\nChannel positions                        : Front: L C R, Side: L R, LFE\nSampling rate                            : 48.0 KHz\nBit depth                                : 16 bits\nCompression mode                        : Lossy\nStream size                              : 243 MiB (10%)\nLanguage                                : English\nDefault                                  : Yes\nForced                                  : No \n\n\nScreens:\n &lt;a href=&quot;\nhttp://imgsparrow.co/image/WW&quot; rel=&quot;nofollow&quot; target=&quot;_NEW&quot;&gt;\nhttp://imgsparrow.co/image/WW&lt;/a&gt;\n &lt;a href=&quot;\nhttp://imgsparrow.co/image/WX&quot; rel=&quot;nofollow&quot; target=&quot;_NEW&quot;&gt;\nhttp://imgsparrow.co/image/WX&lt;/a&gt;\n &lt;a href=&quot;\nhttp://imgsparrow.co/image/WY&quot; rel=&quot;nofollow&quot; target=&quot;_NEW&quot;&gt;\nhttp://imgsparrow.co/image/WY&lt;/a&gt;\n &lt;a href=&quot;\nhttp://imgsparrow.co/image/Wc&quot; rel=&quot;nofollow&quot; target=&quot;_NEW&quot;&gt;\nhttp://imgsparrow.co/image/Wc&lt;/a&gt;","torrent":{"xt":"urn:btih:9bb106ad03aff49d2a30e2e1b4d08ea30058016d","amp;dn":"TNA+iMPACT+Wrestling+2015+06+24+720p+HDTV+DD+5.1+x264-PPKORE+-%3D%7B","amp;tr":["udp%3A%2F%2Ftracker.openbittorrent.com%3A80","udp%3A%2F%2Fopen.demonii.com%3A1337","udp%3A%2F%2Ftracker.coppersurfer.tk%3A6969","udp%3A%2F%2Fexodus.desync.com%3A6969"],"infoHash":"9bb106ad03aff49d2a30e2e1b4d08ea30058016d","infoHashBuffer":{"type":"Buffer","data":[155,177,6,173,3,175,244,157,42,48,226,225,180,208,142,163,0,88,1,109]},"announce":[],"urlList":[]}}